<?xml version="1.0" encoding="UTF-8" ?>
<!DOCTYPE svg PUBLIC "-//W3C//DTD SVG 1.1//EN" "http://www.w3.org/Graphics/SVG/1.1/DTD/svg11.dtd">
<svg width="1036pt" height="274pt" viewBox="0 0 1036 274" version="1.1" xmlns="http://www.w3.org/2000/svg">
<path fill="#fefefe" d=" M 0.00 0.00 L 1036.00 0.00 L 1036.00 274.00 L 0.00 274.00 L 0.00 0.00 Z" />
<path fill="#263d6a" d=" M 978.45 17.45 C 983.59 11.92 990.95 7.94 998.69 8.97 C 1005.21 9.40 1009.85 14.78 1013.36 19.76 C 1016.50 22.21 1020.28 24.02 1022.45 27.53 C 1026.51 32.58 1028.02 39.02 1028.82 45.31 C 1028.68 54.60 1026.12 64.03 1021.16 72.00 C 1018.44 77.14 1014.14 81.15 1010.66 85.75 C 1001.68 97.03 990.91 106.64 980.83 116.89 C 970.87 127.16 959.53 136.40 952.30 148.99 C 953.43 150.77 956.21 152.49 954.98 154.90 C 953.50 158.48 952.15 162.17 950.20 165.52 C 950.12 166.03 949.96 167.07 949.88 167.59 C 948.75 169.57 947.78 171.64 946.74 173.67 C 945.39 176.66 943.30 179.37 942.81 182.67 C 941.18 184.65 940.59 187.23 939.37 189.45 C 938.69 190.79 938.03 192.13 937.36 193.48 C 935.39 199.07 931.82 203.88 928.93 209.00 C 922.16 219.49 915.96 230.39 908.30 240.29 C 904.99 244.62 901.85 249.64 896.66 251.91 C 893.13 252.80 888.73 252.86 886.07 249.96 C 881.37 245.62 882.93 238.40 884.78 233.05 C 892.09 209.61 902.54 187.22 914.99 166.10 C 915.62 166.15 916.89 166.27 917.52 166.32 C 917.82 166.04 918.42 165.49 918.72 165.21 C 917.68 165.46 915.60 165.95 914.56 166.20 C 916.71 162.25 919.76 158.68 921.15 154.38 C 923.62 151.13 925.68 147.60 928.11 144.32 C 936.29 144.08 944.34 147.21 950.78 152.16 C 952.07 152.95 952.88 154.74 954.63 154.62 C 947.94 147.75 938.11 142.63 928.32 143.84 C 929.39 140.44 932.73 141.20 935.35 141.34 C 942.50 121.78 940.16 100.65 942.18 80.32 C 942.96 71.47 943.93 62.49 947.03 54.07 C 949.53 49.44 950.76 44.19 953.83 39.85 C 958.86 32.68 965.24 26.37 972.74 21.81 C 974.79 20.57 976.89 19.33 978.45 17.45 Z" />
<path fill="#84371c" d=" M 101.88 17.78 C 111.85 11.45 124.39 9.12 135.90 12.02 C 138.37 12.95 140.51 14.55 142.69 16.02 C 146.12 18.21 147.64 22.14 149.85 25.37 C 151.75 31.03 154.08 37.12 152.52 43.14 C 152.20 50.50 150.23 57.68 147.84 64.63 C 142.00 77.44 134.85 89.83 124.87 99.89 C 116.21 110.11 104.30 116.79 92.20 122.13 C 83.90 125.30 75.25 127.55 66.40 128.52 C 65.56 133.97 67.50 139.23 68.49 144.52 C 68.94 145.47 69.39 146.42 69.85 147.36 C 73.37 156.77 78.43 166.50 87.50 171.64 C 91.03 174.38 95.39 175.39 99.58 176.59 C 102.06 176.90 104.73 176.45 106.99 177.74 C 110.19 176.01 114.01 177.48 117.34 176.19 C 119.07 175.63 120.80 175.04 122.56 174.54 C 127.81 172.08 133.14 169.44 137.15 165.13 C 141.66 159.98 145.61 154.14 147.45 147.47 C 148.69 139.42 147.58 130.90 143.15 123.95 C 140.64 120.36 137.54 116.73 132.97 116.02 C 130.26 116.34 128.18 117.94 127.18 120.49 C 127.09 123.06 128.73 125.14 130.39 126.93 C 129.21 128.39 127.95 129.79 126.53 131.03 C 122.81 127.52 120.38 122.35 122.07 117.25 C 124.07 113.12 128.08 109.35 132.99 109.69 C 141.87 109.62 148.11 117.51 151.07 125.09 C 154.25 131.89 154.84 139.62 153.96 147.01 C 152.14 156.84 146.08 165.20 139.08 172.07 C 129.76 179.62 117.97 184.08 105.95 184.16 C 94.26 184.03 82.36 180.41 73.65 172.39 C 68.13 167.16 64.26 160.51 61.15 153.64 C 59.16 146.72 56.78 139.80 56.49 132.54 C 56.13 131.38 55.82 130.21 55.57 129.03 C 51.91 128.23 48.11 128.71 44.47 127.84 C 33.62 125.73 22.69 121.26 15.17 112.88 C 7.66 104.94 3.10 93.94 3.61 82.95 C 3.43 77.37 3.75 71.53 6.51 66.54 C 6.64 66.00 6.90 64.92 7.03 64.38 C 10.25 58.69 13.59 52.67 19.26 49.07 C 29.43 41.44 44.87 41.76 54.66 49.80 C 52.96 52.20 51.30 54.63 49.46 56.91 C 47.29 54.65 44.42 53.41 41.48 52.50 C 39.17 52.20 36.96 51.23 34.60 51.37 C 32.77 52.54 30.54 52.24 28.47 52.40 C 23.86 54.87 19.80 58.30 16.61 62.44 C 14.71 65.68 13.19 69.11 11.54 72.48 C 10.11 77.22 10.15 82.16 10.34 87.07 C 11.64 100.13 20.51 112.13 32.67 117.14 C 39.60 121.07 47.75 122.09 55.60 121.74 C 55.15 102.86 58.90 84.15 65.15 66.37 C 65.94 64.76 66.73 63.14 67.50 61.51 C 68.72 57.19 71.44 53.55 73.50 49.62 C 76.35 44.26 79.99 39.39 83.40 34.38 C 88.27 27.57 95.00 22.43 101.88 17.78 Z" />
<path fill="#84371c" d=" M 582.10 11.00 C 590.37 10.02 598.67 10.98 606.91 11.63 C 615.76 13.33 624.88 16.12 631.73 22.25 C 640.52 29.19 644.32 41.04 643.10 51.95 C 640.95 64.38 632.45 75.48 620.97 80.76 C 625.14 83.18 629.88 84.45 633.93 87.13 C 640.98 92.36 647.61 98.72 651.16 106.92 C 659.51 122.57 659.48 142.37 650.97 157.95 C 644.40 171.46 630.61 180.53 616.08 183.27 C 610.72 183.46 605.37 184.79 600.01 183.99 C 593.20 183.05 586.26 182.40 579.74 180.08 C 576.53 178.95 573.23 178.12 569.94 177.29 C 565.99 181.78 560.04 184.97 553.93 183.73 C 550.66 183.63 547.03 182.72 545.34 179.64 C 544.15 177.84 545.38 175.85 546.06 174.14 C 551.51 170.12 558.63 169.37 565.05 170.87 C 567.24 168.51 568.26 165.41 569.54 162.52 C 573.54 150.45 575.55 137.83 577.24 125.27 C 578.23 121.38 577.38 117.29 578.41 113.41 C 579.12 107.95 578.48 102.38 579.13 96.91 C 580.44 90.63 579.09 84.09 580.50 77.81 C 580.99 66.10 582.73 54.49 585.08 43.00 C 586.61 35.92 589.35 29.11 592.81 22.76 C 596.08 23.48 599.51 23.27 602.75 24.21 C 602.72 24.54 602.67 25.21 602.64 25.54 C 599.26 31.90 596.14 38.49 594.73 45.61 C 592.41 58.32 590.58 71.10 590.07 84.00 C 588.64 89.57 589.64 95.37 588.89 101.01 C 587.60 106.29 588.84 111.83 587.49 117.10 C 586.37 132.59 582.73 147.86 577.84 162.60 C 576.77 165.53 575.48 168.38 574.01 171.13 C 574.12 171.44 574.35 172.06 574.46 172.36 C 587.00 176.36 600.34 178.32 613.40 176.32 C 618.25 174.78 623.21 173.30 627.56 170.61 C 631.75 167.53 635.79 164.13 638.91 159.93 C 641.31 156.77 642.77 153.05 644.56 149.55 C 648.98 137.72 648.81 124.42 644.23 112.65 C 641.66 104.79 636.49 98.04 630.11 92.87 C 627.08 89.73 623.00 88.03 618.96 86.63 C 615.45 85.52 611.81 83.60 608.09 85.01 C 602.41 85.63 596.37 86.14 590.90 84.14 C 591.28 82.02 591.55 79.88 591.82 77.74 C 598.28 77.43 604.73 78.03 611.16 78.72 C 621.04 76.39 627.83 67.49 631.58 58.52 C 633.62 52.58 634.68 46.08 632.66 39.97 C 631.08 34.67 627.44 30.23 623.49 26.48 C 618.87 22.39 612.71 20.88 607.07 18.75 C 592.16 16.35 576.32 16.32 562.19 22.27 C 555.19 25.53 548.23 29.22 542.63 34.65 C 537.79 39.94 533.06 45.46 529.87 51.94 C 525.08 61.60 522.96 72.35 522.34 83.03 C 521.98 91.13 523.85 99.30 527.45 106.55 C 530.41 111.57 535.96 115.54 542.01 114.89 C 546.97 115.36 552.17 112.97 554.61 108.54 C 555.26 105.95 555.25 102.69 552.90 100.92 C 550.55 99.44 547.80 100.39 545.33 100.88 C 544.60 99.22 543.99 97.51 543.60 95.74 C 548.38 94.06 554.77 93.17 558.36 97.60 C 561.87 100.71 561.65 105.77 561.14 110.02 C 559.57 115.76 554.42 119.65 548.89 121.20 C 542.80 122.15 536.18 122.29 530.49 119.63 C 520.44 114.73 515.99 103.37 514.08 93.01 C 513.05 82.00 514.20 70.76 518.17 60.38 C 522.87 48.89 530.05 38.51 538.64 29.58 C 550.64 18.99 566.09 12.16 582.10 11.00 Z" />
<path fill="#fefefe" d=" M 992.69 11.93 C 998.30 10.59 1004.31 13.11 1007.92 17.46 C 1006.85 17.39 1005.79 17.30 1004.75 17.22 C 1003.80 15.80 1002.90 14.19 1001.24 13.51 C 998.51 12.70 996.37 14.86 994.21 16.11 C 990.48 16.56 986.72 16.64 983.04 17.33 C 985.41 14.33 989.18 13.07 992.69 11.93 Z" />
<path fill="#fefefe" d=" M 93.84 36.92 C 101.33 28.18 110.61 20.08 122.08 17.39 C 125.20 16.99 128.36 17.23 131.49 17.36 C 135.00 18.99 138.93 20.72 140.73 24.39 C 143.17 27.87 143.77 32.15 144.51 36.22 C 144.02 60.09 131.01 81.91 114.68 98.62 C 106.69 107.23 95.91 112.43 85.52 117.51 C 84.13 117.72 82.74 117.95 81.44 118.47 C 76.53 120.02 71.37 120.74 66.35 121.79 C 64.38 119.45 65.69 115.91 65.54 113.08 C 66.69 109.13 65.80 104.95 66.96 101.01 C 67.86 92.49 70.01 84.15 72.27 75.90 C 76.75 61.61 84.59 48.61 93.84 36.92 Z" />
<path fill="#fefefe" d=" M 978.37 22.27 C 982.35 19.94 987.15 19.61 991.66 19.15 C 990.47 21.71 988.87 24.02 987.33 26.36 C 978.54 40.33 972.77 55.94 967.51 71.51 C 962.74 81.24 957.72 90.88 954.31 101.19 C 951.49 108.75 949.94 116.79 946.15 123.96 C 950.01 109.70 953.28 95.29 956.33 80.85 C 958.30 70.54 961.40 60.49 964.50 50.47 C 968.15 40.67 972.03 30.68 978.37 22.27 Z" />
<path fill="#fefefe" d=" M 994.65 20.58 C 996.04 18.04 999.21 19.36 1001.48 19.60 C 1001.93 22.58 1001.77 25.60 1001.64 28.60 C 996.53 33.84 990.87 38.63 986.62 44.64 C 983.95 48.49 980.52 51.74 978.21 55.84 C 978.88 53.03 979.74 50.27 980.89 47.62 C 981.04 47.08 981.33 45.99 981.48 45.45 C 985.62 37.04 988.94 28.11 994.65 20.58 Z" />
<path fill="#fefefe" d=" M 1004.89 20.10 C 1006.93 20.58 1008.93 21.22 1010.92 21.93 C 1009.80 24.27 1007.00 25.42 1004.67 26.20 C 1004.14 24.17 1004.38 22.10 1004.89 20.10 Z" />
<path fill="#fefefe" d=" M 961.18 35.18 C 965.06 31.85 968.35 27.76 972.93 25.34 C 967.40 34.15 963.76 43.97 960.65 53.85 C 956.16 67.11 953.82 80.93 950.49 94.48 C 947.44 104.23 945.71 114.35 942.61 124.08 C 943.75 115.11 944.24 106.08 944.03 97.03 C 944.57 91.03 943.72 84.93 945.10 79.02 C 945.13 71.70 946.74 64.55 948.54 57.50 C 951.49 49.46 955.10 41.37 961.18 35.18 Z" />
<path fill="#fefefe" d=" M 1003.54 31.44 C 1005.65 28.63 1009.30 27.52 1012.24 25.72 C 1013.46 27.13 1013.90 28.96 1014.65 30.63 C 1014.87 32.69 1014.09 34.61 1013.52 36.54 C 1013.02 37.48 1012.53 38.42 1012.05 39.36 C 1011.92 39.90 1011.65 40.97 1011.52 41.51 C 1006.56 51.67 1001.57 61.86 995.19 71.22 C 992.28 75.24 989.04 79.02 986.05 82.98 C 990.09 74.14 993.69 65.09 997.00 55.94 C 999.07 47.75 1002.83 39.92 1003.54 31.44 Z" />
<path fill="#fefefe" d=" M 1018.55 27.28 C 1025.81 34.86 1027.57 46.28 1024.75 56.15 C 1021.76 66.94 1015.58 76.60 1008.06 84.80 C 1013.83 74.49 1017.80 63.00 1018.55 51.16 C 1019.89 45.00 1019.02 38.56 1017.56 32.53 C 1018.25 30.86 1018.62 29.09 1018.55 27.28 Z" />
<path fill="#fefefe" d=" M 988.11 47.01 C 991.84 42.40 995.35 37.30 1000.44 34.10 C 998.05 47.01 993.18 59.33 988.35 71.48 C 985.47 78.35 981.54 84.70 978.25 91.36 C 973.55 100.95 967.08 109.48 961.51 118.55 C 956.45 127.03 950.73 135.09 945.59 143.50 C 945.27 143.57 944.64 143.71 944.33 143.78 C 948.09 137.46 949.67 130.18 952.94 123.63 C 953.07 123.09 953.33 122.00 953.47 121.46 C 953.95 120.52 954.44 119.58 954.93 118.64 C 958.12 109.26 960.82 99.67 964.90 90.63 C 965.04 90.10 965.33 89.04 965.48 88.50 C 967.64 83.87 968.94 78.92 970.53 74.08 C 971.87 70.23 974.72 67.18 976.54 63.58 C 979.54 57.49 984.17 52.47 988.11 47.01 Z" />
<path fill="#fefefe" d=" M 1015.43 37.88 C 1015.70 39.13 1016.03 40.36 1016.51 41.55 C 1016.91 51.75 1014.84 61.90 1011.47 71.51 C 1005.50 85.19 996.93 97.83 985.59 107.61 C 977.20 116.85 967.56 124.84 959.09 134.00 C 956.06 137.22 953.78 141.18 950.35 144.01 C 950.68 142.84 950.99 141.63 951.80 140.68 C 961.17 127.11 970.43 113.46 979.47 99.66 C 991.13 82.89 1002.69 65.91 1011.50 47.44 C 1013.03 44.35 1014.75 41.30 1015.43 37.88 Z" />
<path fill="#84371c" d=" M 166.77 45.80 C 169.61 44.66 172.70 44.65 175.69 44.18 C 174.90 55.78 175.19 67.50 173.33 79.00 C 173.56 87.04 171.88 94.91 172.12 102.94 C 171.19 107.97 171.14 113.08 171.29 118.19 C 175.92 111.08 180.85 103.52 188.72 99.69 C 194.67 97.18 202.42 96.89 207.36 101.66 C 210.52 105.39 211.39 110.36 212.07 115.05 C 210.91 119.31 211.67 123.80 210.49 128.05 C 209.48 137.21 205.91 145.86 204.88 155.01 C 203.92 159.00 204.17 163.14 203.21 167.13 C 200.35 167.57 197.48 167.96 194.61 168.34 C 194.35 158.77 195.44 149.23 198.03 140.01 C 200.27 131.81 202.12 123.47 202.74 114.99 C 202.70 110.93 202.08 105.34 197.16 104.49 C 194.10 105.51 190.58 105.76 188.14 108.09 C 179.45 115.40 174.40 126.07 170.75 136.60 C 169.03 140.93 169.70 145.68 168.52 150.12 C 168.01 155.74 168.58 161.45 167.23 166.99 C 164.36 167.44 161.51 168.02 158.61 168.25 C 158.87 163.81 158.46 159.30 159.47 154.93 C 160.06 150.44 159.32 145.84 160.38 141.40 C 161.14 136.45 160.26 131.36 161.37 126.46 C 162.15 121.82 161.27 117.04 162.37 112.44 C 163.15 107.48 162.26 102.38 163.38 97.46 C 164.15 92.81 163.27 88.01 164.38 83.40 C 165.15 78.45 164.27 73.35 165.38 68.44 C 166.11 64.12 165.36 59.67 166.20 55.36 C 166.90 52.22 166.64 48.98 166.77 45.80 Z" />
<path fill="#84371c" d=" M 723.98 45.78 C 727.01 44.90 730.12 44.29 733.28 44.17 C 733.26 51.16 731.81 58.02 732.10 65.03 C 730.75 71.27 731.75 77.73 730.40 83.98 C 730.45 94.03 728.47 103.95 729.25 114.03 C 731.56 107.91 735.60 102.64 739.60 97.54 C 743.71 92.94 749.53 88.78 756.05 89.81 C 760.65 89.86 763.47 94.85 763.16 99.01 C 762.47 108.50 756.47 116.44 749.91 122.87 C 745.78 126.65 740.89 129.38 736.22 132.39 L 735.98 133.12 C 737.79 136.11 739.45 139.17 740.86 142.38 C 741.90 147.28 743.21 152.12 744.13 157.05 C 744.56 159.77 746.16 162.12 748.03 164.08 C 753.70 161.53 757.55 156.21 760.61 150.99 C 762.77 151.93 764.56 153.52 766.42 154.95 C 762.85 160.16 758.65 164.94 753.71 168.89 C 750.14 170.40 745.97 171.21 742.22 169.91 C 738.72 167.70 737.22 163.65 736.00 159.90 C 734.89 155.96 733.93 151.95 733.62 147.86 C 732.75 143.62 731.02 139.61 728.92 135.84 C 724.93 140.52 726.72 147.40 726.03 153.07 C 724.98 157.67 725.36 162.41 725.13 167.09 C 722.00 167.56 718.88 168.08 715.73 168.35 C 715.56 161.52 717.18 154.85 716.88 148.01 C 718.30 141.42 717.19 134.59 718.63 128.00 C 718.99 123.81 718.45 119.54 719.41 115.41 C 720.16 111.04 719.38 106.55 720.26 102.20 C 721.24 97.64 720.35 92.91 721.22 88.34 C 722.32 83.44 721.23 78.32 722.40 73.42 C 723.18 68.61 722.29 63.64 723.49 58.88 C 723.92 54.53 723.75 50.14 723.98 45.78 Z" />
<path fill="#84371c" d=" M 880.94 45.77 C 883.98 44.83 887.16 44.49 890.33 44.21 C 890.23 46.41 890.27 48.64 889.77 50.81 C 888.81 55.07 889.68 59.50 888.77 63.77 C 887.87 67.45 888.56 71.29 887.91 75.01 C 886.76 79.93 887.70 85.06 886.40 89.97 C 886.48 96.68 885.01 103.24 885.10 109.96 C 883.89 114.55 884.55 119.32 883.92 123.97 C 882.76 128.26 883.81 132.74 882.89 137.07 C 882.14 140.01 882.26 143.07 882.16 146.09 C 879.95 146.14 877.77 146.34 875.60 146.64 C 875.95 141.70 875.41 136.69 876.48 131.82 C 877.09 125.88 876.25 119.82 877.46 113.94 C 878.10 108.29 877.24 102.51 878.46 96.92 C 878.90 91.97 878.62 86.98 878.94 82.02 C 880.19 76.09 879.50 69.99 879.95 63.99 C 881.17 58.00 880.57 51.84 880.94 45.77 Z" />
<path fill="#84371c" d=" M 324.88 55.93 C 327.97 55.42 331.09 55.12 334.22 55.22 C 334.15 58.00 334.26 60.82 333.61 63.55 C 332.79 69.05 333.77 74.71 332.50 80.16 C 331.87 84.95 332.71 89.87 331.56 94.60 C 331.06 95.76 331.51 96.91 332.19 97.88 C 337.84 97.72 343.50 97.86 349.16 97.80 C 347.93 99.83 348.81 102.61 347.67 104.47 C 342.29 104.60 336.89 104.49 331.51 104.48 C 329.89 110.55 330.48 116.85 329.89 123.03 C 328.65 127.79 329.77 132.80 328.58 137.57 C 327.52 144.59 329.08 151.56 329.37 158.55 C 330.37 160.36 331.58 163.42 334.15 162.87 C 340.81 160.42 344.08 153.63 346.59 147.49 C 346.80 143.77 349.17 139.40 345.87 136.34 C 342.12 138.56 338.36 141.35 336.66 145.53 C 335.19 144.45 332.59 143.94 332.15 141.99 C 334.58 136.53 338.95 131.18 345.14 130.05 C 348.34 128.90 351.85 130.97 352.95 134.05 C 355.36 138.66 353.75 143.94 352.61 148.67 C 350.44 155.96 346.86 163.20 340.71 167.93 C 336.59 171.07 330.51 171.73 326.03 169.00 C 322.22 165.37 320.86 160.06 319.92 155.06 C 319.63 149.69 318.21 144.36 319.12 138.96 C 320.47 132.32 319.05 125.43 320.52 118.81 C 320.91 114.06 320.86 109.27 320.95 104.50 C 318.14 104.51 315.35 104.51 312.55 104.52 C 312.68 102.28 312.82 100.04 312.95 97.81 C 315.78 97.63 318.79 98.26 321.51 97.44 C 323.19 90.12 322.31 82.49 323.69 75.11 C 323.41 68.65 325.05 62.38 324.88 55.93 Z" />
<path fill="#84371c" d=" M 254.86 79.89 C 257.28 77.65 261.25 78.81 264.28 77.74 C 264.46 81.92 263.60 86.00 263.17 90.13 C 260.06 90.68 256.96 91.35 253.80 91.52 C 254.93 87.73 254.63 83.78 254.86 79.89 Z" />
<path fill="#84371c" d=" M 363.79 78.95 C 366.96 78.70 370.09 78.18 373.24 77.76 C 372.74 81.87 372.01 85.94 372.14 90.10 C 369.03 90.63 365.94 91.31 362.79 91.53 C 362.58 87.29 363.96 83.19 363.79 78.95 Z" />
<path fill="#84371c" d=" M 220.33 90.12 C 223.29 89.42 226.34 89.23 229.34 88.68 C 229.19 92.16 229.13 95.64 229.25 99.12 C 229.52 98.66 230.07 97.74 230.34 97.28 C 231.20 96.87 232.07 96.46 232.93 96.04 C 234.60 96.67 236.11 97.61 236.94 99.26 C 238.99 107.31 239.61 115.69 242.41 123.55 C 243.55 126.52 245.81 128.76 248.07 130.91 C 246.08 133.35 244.17 135.85 242.40 138.45 C 238.48 132.98 235.11 126.78 234.69 119.93 C 233.72 115.91 233.85 111.71 232.53 107.76 C 229.25 119.16 226.98 130.92 225.77 142.70 C 224.68 147.92 225.79 153.35 224.60 158.56 C 224.11 161.34 224.32 164.18 224.15 166.99 C 221.03 167.42 217.92 167.93 214.80 168.34 C 215.43 162.24 215.94 156.15 215.97 150.00 C 217.19 145.05 216.45 139.92 217.12 134.92 C 218.38 129.51 217.19 123.85 218.41 118.44 C 219.15 114.11 218.39 109.66 219.22 105.34 C 220.33 100.34 219.22 95.10 220.33 90.12 Z" />
<path fill="#fefefe" d=" M 746.68 99.62 C 748.44 97.79 751.03 97.25 753.36 96.49 C 755.05 97.70 753.72 99.94 753.48 101.56 C 749.12 112.22 740.97 121.21 731.08 127.07 C 731.40 125.22 731.85 123.39 732.61 121.67 C 736.21 113.72 740.20 105.66 746.68 99.62 Z" />
<path fill="#84371c" d=" M 284.44 99.34 C 288.97 97.65 294.06 97.83 298.54 99.59 C 301.95 101.67 304.21 105.05 305.81 108.63 C 303.96 110.02 302.19 111.50 300.41 112.96 C 299.39 110.32 298.23 107.66 296.18 105.64 C 293.66 103.85 290.10 104.17 287.51 105.62 C 283.95 107.83 284.32 113.23 287.04 115.98 C 292.56 122.43 300.12 126.83 305.40 133.54 C 308.25 136.70 309.96 140.62 311.86 144.37 C 313.04 149.08 314.30 154.36 311.92 158.92 C 310.09 163.66 305.34 166.31 300.99 168.36 C 292.88 170.28 283.94 171.64 276.06 168.08 C 272.57 166.78 269.85 164.03 268.08 160.81 C 267.15 156.40 267.20 151.10 270.79 147.82 C 275.95 142.21 285.97 144.45 289.45 150.86 C 287.78 152.16 286.11 153.46 284.43 154.75 C 282.92 152.54 280.42 151.52 278.06 150.52 C 277.46 150.79 276.27 151.34 275.67 151.61 C 274.49 153.41 273.15 155.26 273.14 157.51 C 274.64 159.47 276.48 161.13 278.44 162.63 C 284.15 163.57 290.25 164.83 295.83 162.56 C 300.27 161.11 304.69 156.95 303.87 151.89 C 303.05 143.88 296.72 138.05 290.97 133.06 C 284.65 128.03 277.56 122.42 275.95 114.02 C 274.68 107.85 278.75 101.57 284.44 99.34 Z" />
<path fill="#84371c" d=" M 406.86 99.88 C 412.96 97.27 421.06 96.72 426.05 101.91 C 430.60 107.66 430.89 115.62 429.58 122.55 C 428.47 137.58 421.76 151.77 422.07 166.99 C 418.98 167.57 415.87 168.07 412.74 168.34 C 412.43 161.96 413.46 155.68 414.22 149.38 C 416.56 136.14 422.32 123.15 420.54 109.49 C 420.14 106.50 417.94 104.91 415.06 104.63 C 412.03 105.56 408.56 105.82 406.34 108.36 C 400.38 112.96 396.62 119.66 393.25 126.25 C 389.61 133.98 386.50 142.31 387.15 151.01 C 386.41 156.33 386.10 161.68 386.09 167.07 C 382.99 167.56 379.88 168.07 376.76 168.34 C 376.90 165.03 376.63 161.67 377.42 158.42 C 378.19 153.79 377.30 149.01 378.39 144.42 C 379.18 139.45 378.28 134.34 379.40 129.41 C 380.18 124.45 379.28 119.34 380.40 114.41 C 381.27 110.07 380.10 105.39 381.39 101.19 C 384.32 100.46 387.41 100.47 390.36 99.75 C 390.71 105.95 389.19 112.03 389.65 118.19 C 394.21 111.17 399.07 103.64 406.86 99.88 Z" />
<path fill="#84371c" d=" M 440.70 104.81 C 445.65 96.94 456.66 96.86 464.58 99.56 C 468.38 101.87 472.40 104.34 474.55 108.41 C 477.87 114.02 480.72 120.32 480.39 126.99 C 480.31 133.31 480.42 139.66 479.32 145.90 C 479.62 153.02 478.09 159.98 478.21 167.09 C 475.10 167.48 472.02 168.03 468.91 168.35 C 468.87 166.21 468.86 164.06 468.88 161.92 C 462.92 169.46 451.92 172.63 443.06 168.55 C 439.00 167.00 436.29 163.29 434.52 159.47 C 433.23 157.03 434.03 154.14 433.17 151.57 C 433.76 148.48 433.86 145.30 435.14 142.38 C 437.67 137.76 440.87 133.43 444.97 130.09 C 448.56 127.25 452.98 125.80 457.17 124.11 C 461.55 122.48 466.27 122.95 470.81 122.26 C 471.39 117.85 469.13 113.72 466.78 110.16 C 462.93 103.92 452.79 102.41 447.73 107.94 C 451.21 110.25 451.39 116.30 447.60 118.36 C 444.80 119.98 439.94 119.38 439.01 115.84 C 438.33 112.16 438.08 107.83 440.70 104.81 Z" />
<path fill="#84371c" d=" M 674.73 99.65 C 683.82 95.68 695.35 98.61 701.33 106.55 C 704.42 110.92 706.54 115.91 707.99 121.05 C 708.82 127.67 708.21 134.36 708.05 141.01 C 706.78 146.25 707.56 151.68 706.90 156.98 C 706.08 160.29 706.35 163.72 706.22 167.09 C 703.11 167.48 700.02 168.03 696.91 168.35 C 696.88 166.20 696.86 164.05 696.88 161.90 C 690.96 169.47 679.93 172.62 671.09 168.55 C 666.53 166.78 663.60 162.41 661.94 158.00 C 661.41 152.53 660.87 146.58 663.70 141.61 C 667.01 135.33 672.02 129.56 678.67 126.75 C 682.65 125.09 686.65 123.18 691.02 122.88 C 693.61 122.75 696.20 122.62 698.78 122.27 C 699.44 117.85 697.12 113.72 694.78 110.16 C 690.91 103.89 680.79 102.44 675.68 107.95 C 676.47 108.75 677.27 109.54 678.08 110.33 C 678.16 112.56 678.86 115.25 677.15 117.07 C 674.97 119.74 670.90 119.71 668.16 117.95 C 664.11 111.53 667.80 102.30 674.73 99.65 Z" />
<path fill="#84371c" d=" M 795.13 98.41 C 803.09 95.79 813.30 102.11 812.41 110.98 C 813.38 118.81 806.59 124.17 801.13 128.49 C 794.61 132.66 786.80 134.09 779.43 136.08 C 779.16 136.70 778.62 137.93 778.35 138.55 C 778.07 142.85 777.94 147.17 778.34 151.47 C 780.18 155.98 782.50 160.85 787.42 162.63 C 791.51 164.20 796.18 164.17 800.01 161.88 C 804.15 159.17 807.01 154.96 809.23 150.62 C 810.82 152.01 812.51 153.29 814.33 154.39 C 810.88 163.65 801.28 171.18 791.07 170.30 C 787.99 169.89 784.76 169.61 782.03 168.00 C 773.83 164.11 769.11 154.80 768.80 146.00 C 769.50 134.07 773.21 122.37 779.10 111.98 C 783.05 106.14 787.83 99.97 795.13 98.41 Z" />
<path fill="#84371c" d=" M 825.93 114.00 C 824.49 107.00 829.96 99.88 836.83 98.65 C 839.45 98.09 842.20 97.87 844.83 98.58 C 850.22 98.94 853.27 104.01 855.69 108.20 C 854.10 109.96 852.25 111.45 850.42 112.95 C 848.89 109.26 846.91 104.04 842.02 104.44 C 838.21 104.11 835.16 106.96 834.43 110.54 C 835.19 112.91 836.10 115.32 837.87 117.15 C 845.25 124.43 854.51 130.15 859.46 139.57 C 862.65 145.55 865.00 153.21 861.59 159.58 C 859.64 164.00 855.08 166.42 850.93 168.38 C 841.54 170.74 830.52 171.95 822.20 165.89 C 815.36 161.23 816.09 149.50 823.48 145.74 C 829.08 142.95 835.69 145.71 839.50 150.24 C 838.15 152.12 836.18 153.38 834.35 154.73 C 832.86 152.49 830.33 151.53 828.00 150.45 C 825.63 151.28 824.20 153.29 823.29 155.53 C 823.28 156.04 823.26 157.07 823.25 157.58 C 824.68 159.54 826.40 161.26 828.40 162.64 C 833.90 163.73 839.63 164.05 845.14 162.80 C 849.82 161.47 854.73 157.22 853.84 151.89 C 852.91 143.87 846.73 138.00 840.92 133.04 C 834.62 127.99 827.47 122.44 825.93 114.00 Z" />
<path fill="#84371c" d=" M 253.78 100.97 C 256.95 100.84 260.07 100.25 263.19 99.76 C 261.93 105.12 262.47 110.64 261.88 116.07 C 260.76 120.66 261.60 125.43 260.89 130.06 C 259.62 135.49 260.82 141.15 259.59 146.58 C 258.84 150.92 259.62 155.39 258.76 159.73 C 258.18 162.15 258.28 164.64 258.22 167.11 C 255.09 167.57 251.96 168.07 248.81 168.34 C 249.60 162.91 249.87 157.45 249.97 151.96 C 251.37 146.33 250.17 140.44 251.50 134.81 C 252.06 129.58 251.39 124.26 252.62 119.11 C 252.50 113.01 253.43 107.02 253.78 100.97 Z" />
<path fill="#84371c" d=" M 362.82 100.95 C 365.69 100.76 368.54 100.30 371.37 99.74 C 371.17 103.81 371.37 107.90 370.91 111.95 C 369.62 117.28 370.82 122.86 369.50 128.19 C 368.95 133.43 369.60 138.77 368.38 143.93 C 368.53 151.70 366.97 159.31 367.10 167.08 C 364.00 167.55 360.90 168.06 357.78 168.35 C 357.87 165.67 357.69 162.96 358.24 160.32 C 359.28 155.70 358.32 150.90 359.24 146.26 C 360.30 141.38 359.23 136.30 360.39 131.43 C 361.19 126.46 360.29 121.35 361.41 116.42 C 362.28 111.31 361.08 105.94 362.82 100.95 Z" />
<path fill="#fefefe" d=" M 791.02 109.00 C 792.74 106.15 796.10 105.42 799.02 104.40 C 803.01 105.07 805.02 109.81 803.21 113.29 C 799.16 121.99 790.19 127.00 781.13 128.99 C 781.70 121.40 786.69 114.98 791.02 109.00 Z" />
<path fill="#fefefe" d=" M 465.86 129.30 C 467.41 129.15 468.93 128.83 470.46 128.49 C 472.53 130.18 471.67 133.11 471.24 135.35 C 470.34 142.95 469.09 151.02 464.22 157.22 C 461.19 161.72 455.47 164.63 450.05 163.46 C 444.47 162.45 441.55 156.12 442.26 150.90 C 443.86 139.43 454.19 129.68 465.86 129.30 Z" />
<path fill="#fefefe" d=" M 686.85 130.67 C 690.53 129.03 694.71 129.63 698.54 128.50 C 700.98 131.06 699.25 134.93 698.95 138.00 C 698.68 141.94 697.21 145.65 696.55 149.53 C 694.09 154.89 690.91 160.92 684.92 162.88 C 681.45 164.27 677.27 164.01 674.24 161.75 C 672.22 160.18 671.37 157.68 670.32 155.45 C 670.15 151.17 670.18 145.50 673.89 142.72 C 673.36 141.13 674.89 140.04 675.63 138.84 C 678.35 134.94 682.57 132.52 686.85 130.67 Z" />
<path fill="#fefefe" d=" M 927.60 148.11 C 927.27 149.29 927.05 150.51 927.13 151.74 C 926.85 151.69 926.27 151.59 925.98 151.54 C 926.15 152.07 926.49 153.12 926.66 153.65 C 926.07 153.64 924.89 153.62 924.31 153.61 L 924.14 155.00 C 924.68 155.27 925.74 155.82 926.27 156.09 C 924.73 156.15 923.20 156.15 921.69 156.07 C 922.26 155.77 923.40 155.16 923.97 154.86 L 923.34 153.55 C 925.19 152.12 926.14 149.90 927.60 148.11 Z" />
<path fill="#84371c" d=" M 873.73 155.94 C 876.67 155.78 879.48 154.84 882.41 154.53 C 882.32 158.69 882.17 162.85 882.03 167.01 C 878.83 167.45 875.66 168.02 872.47 168.41 C 872.23 164.17 873.81 160.15 873.73 155.94 Z" />
<path fill="#b59d9b" d=" M 945.86 157.94 C 945.61 157.01 945.39 156.08 945.17 155.15 C 946.41 156.11 947.66 157.08 948.91 158.06 C 948.74 157.22 948.42 155.54 948.25 154.70 C 949.98 156.07 952.00 157.70 952.14 160.09 C 951.61 159.79 950.54 159.20 950.01 158.91 C 950.29 159.70 950.86 161.30 951.14 162.10 C 950.62 161.84 949.58 161.33 949.06 161.07 C 950.60 162.59 949.49 164.39 948.82 166.04 C 947.93 164.93 946.85 164.09 945.57 163.53 C 945.42 163.39 945.12 163.11 944.96 162.97 C 944.81 162.83 944.49 162.55 944.33 162.41 C 943.29 161.15 942.11 159.97 941.63 158.38 C 942.83 158.96 944.03 159.57 945.21 160.23 C 944.78 159.49 943.91 158.03 943.48 157.30 L 945.86 157.94 Z" />
<path fill="#b59d9b" d=" M 951.41 155.04 C 952.80 154.86 953.31 155.47 952.93 156.87 C 951.55 157.00 951.05 156.40 951.41 155.04 Z" />
<path fill="#b59d9b" d=" M 921.15 157.34 C 922.33 156.66 923.52 156.65 924.72 157.32 C 924.65 158.68 921.15 158.76 921.15 157.34 Z" />
<path fill="#b59d9b" d=" M 920.27 159.25 C 920.97 159.27 922.38 159.32 923.08 159.34 C 923.38 160.72 919.96 160.58 920.27 159.25 Z" />
<path fill="#b59d9b" d=" M 919.17 161.69 C 919.73 160.55 920.68 160.38 922.02 161.19 C 921.43 162.30 920.48 162.47 919.17 161.69 Z" />
<path fill="#fefefe" d=" M 942.41 162.24 C 941.91 161.87 941.91 161.87 942.41 162.24 Z" />
<path fill="#fefefe" d=" M 942.41 162.24 C 942.89 162.28 943.85 162.37 944.33 162.41 C 944.49 162.55 944.81 162.83 944.96 162.97 C 945.12 163.11 945.42 163.39 945.57 163.53 C 946.55 164.94 947.47 166.41 948.21 167.98 C 947.50 167.67 946.08 167.06 945.38 166.75 L 945.66 166.26 L 945.18 165.73 L 944.67 165.15 L 943.98 165.28 C 943.84 164.98 943.56 164.40 943.42 164.10 C 943.09 163.73 942.45 162.98 942.13 162.61 L 942.41 162.24 Z" />
<path fill="#263d6a" d=" M 944.33 162.41 C 944.49 162.55 944.81 162.83 944.96 162.97 C 944.81 162.83 944.49 162.55 944.33 162.41 Z" />
<path fill="#b59d9b" d=" M 918.15 163.80 C 917.67 162.37 921.07 162.37 920.76 163.76 C 920.11 163.77 918.80 163.79 918.15 163.80 Z" />
<path fill="#fefefe" d=" M 938.97 162.72 C 940.39 163.03 941.49 163.79 942.29 164.99 L 943.42 164.10 C 943.56 164.40 943.84 164.98 943.98 165.28 L 944.52 165.89 L 945.18 165.73 C 945.23 165.99 945.33 166.50 945.38 166.75 C 945.81 167.38 946.67 168.63 947.10 169.26 C 946.16 170.24 945.56 171.48 945.26 172.79 C 943.80 172.52 941.61 172.13 942.21 169.89 L 944.95 172.24 C 944.80 171.59 944.51 170.30 944.36 169.66 C 943.70 169.51 942.37 169.23 941.71 169.08 C 941.57 168.68 941.28 167.86 941.14 167.46 L 941.37 167.05 C 941.85 167.16 942.80 167.38 943.27 167.49 C 943.44 167.62 943.77 167.86 943.93 167.99 C 944.05 168.09 944.30 168.29 944.42 168.39 C 944.30 168.29 944.05 168.09 943.93 167.99 C 943.77 167.86 943.44 167.62 943.27 167.49 L 943.59 167.17 C 942.89 165.77 941.81 165.08 940.36 165.11 C 940.01 164.51 939.31 163.31 938.97 162.72 Z" />
<path fill="#263d6a" d=" M 944.96 162.97 C 945.12 163.11 945.42 163.39 945.57 163.53 C 945.42 163.39 945.12 163.11 944.96 162.97 Z" />
<path fill="#263d6a" d=" M 943.42 164.10 C 943.56 164.40 943.84 164.98 943.98 165.28 C 943.84 164.98 943.56 164.40 943.42 164.10 Z" />
<path fill="#b59d9b" d=" M 938.28 165.51 C 938.80 165.41 939.84 165.21 940.36 165.11 C 940.61 165.60 941.12 166.56 941.37 167.05 C 940.00 167.19 938.97 166.68 938.28 165.51 Z" />
<path fill="#263d6a" d=" M 940.36 165.11 C 941.81 165.08 942.89 165.77 943.59 167.17 L 943.27 167.49 C 942.80 167.38 941.85 167.16 941.37 167.05 C 941.12 166.56 940.61 165.60 940.36 165.11 Z" />
<path fill="#263d6a" d=" M 943.98 165.28 L 944.67 165.15 L 945.18 165.73 L 944.52 165.89 L 943.98 165.28 Z" />
<path fill="#263d6a" d=" M 945.18 165.73 L 945.66 166.26 L 945.38 166.75 C 945.33 166.50 945.23 165.99 945.18 165.73 Z" />
<path fill="#263d6a" d=" M 943.27 167.49 C 943.44 167.62 943.77 167.86 943.93 167.99 C 943.77 167.86 943.44 167.62 943.27 167.49 Z" />
<path fill="#b59d9b" d=" M 938.30 167.95 L 938.98 167.61 C 939.25 167.93 939.79 168.57 940.06 168.89 C 939.65 168.85 938.84 168.76 938.43 168.72 L 938.30 167.95 Z" />
<path fill="#263d6a" d=" M 943.93 167.99 C 944.05 168.09 944.30 168.29 944.42 168.39 C 944.30 168.29 944.05 168.09 943.93 167.99 Z" />
<path fill="#fefefe" d=" M 940.06 168.89 C 940.47 168.94 941.29 169.03 941.71 169.08 C 941.29 170.56 940.74 170.50 940.06 168.89 Z" />
<path fill="#fefefe" d=" M 936.86 169.99 C 939.96 170.18 941.92 172.90 944.08 174.79 L 943.56 175.06 C 943.12 174.98 942.23 174.83 941.79 174.76 C 941.66 174.66 941.40 174.46 941.27 174.35 C 940.39 172.35 938.43 171.34 936.86 169.99 Z" />
<path fill="#fefefe" d=" M 936.86 172.95 C 938.34 173.36 939.80 173.85 941.27 174.35 C 941.40 174.46 941.66 174.66 941.79 174.76 C 942.59 175.93 943.00 177.32 942.48 178.70 C 942.15 178.00 941.50 176.61 941.18 175.91 C 939.62 175.09 938.12 174.16 936.86 172.95 Z" />
<path fill="#263d6a" d=" M 941.27 174.35 C 941.40 174.46 941.66 174.66 941.79 174.76 C 941.66 174.66 941.40 174.46 941.27 174.35 Z" />
<path fill="#fefefe" d=" M 552.77 176.52 C 555.18 176.17 557.59 175.78 560.02 175.54 C 558.28 177.42 554.99 177.87 552.77 176.52 Z" />
<path fill="#b59d9b" d=" M 938.09 176.12 C 939.43 175.94 940.12 176.56 940.15 177.97 C 938.67 178.10 937.99 177.49 938.09 176.12 Z" />
<path fill="#fefefe" d=" M 940.15 177.97 C 940.37 178.14 940.80 178.50 941.02 178.67 C 940.80 178.50 940.37 178.14 940.15 177.97 Z" />
<path fill="#fefefe" d=" M 938.30 179.45 C 939.68 179.10 942.01 181.33 940.98 182.71 C 939.44 182.95 938.24 180.77 938.30 179.45 Z" />
<path fill="#fefefe" d=" M 941.02 178.67 C 941.76 179.50 941.76 179.50 941.02 178.67 Z" />
<path fill="#263d6a" d=" M 213.37 193.37 C 218.71 189.50 225.43 191.07 231.13 193.10 C 231.10 193.90 231.03 195.49 230.99 196.28 C 225.86 194.04 219.16 192.64 214.45 196.50 C 210.43 200.39 209.73 206.35 209.32 211.64 C 212.28 211.77 215.25 211.77 218.21 211.73 C 218.17 212.39 218.07 213.70 218.03 214.36 C 215.06 214.37 212.10 214.38 209.13 214.31 C 207.03 221.54 207.04 229.17 205.59 236.53 C 204.13 246.75 202.87 256.99 201.15 267.17 C 200.31 267.17 198.62 267.17 197.78 267.17 C 199.84 256.54 200.76 245.70 202.61 235.03 C 202.98 228.07 205.00 221.31 204.94 214.32 C 202.53 214.36 200.12 214.37 197.72 214.37 C 197.76 213.71 197.84 212.40 197.88 211.74 C 200.40 211.69 202.95 211.96 205.45 211.54 C 206.94 205.11 207.22 197.36 213.37 193.37 Z" />
<path fill="#b59d9b" d=" M 769.07 191.43 C 770.29 191.40 771.52 191.40 772.75 191.40 C 772.76 193.22 772.70 195.04 772.33 196.82 C 772.03 194.97 770.71 193.63 769.59 192.25 C 769.46 192.04 769.20 191.63 769.07 191.43 Z" />
<path fill="#263d6a" d=" M 155.77 191.72 C 156.65 191.73 158.41 191.76 159.29 191.77 C 156.56 206.96 155.06 222.35 152.62 237.60 C 151.97 240.08 152.66 242.89 151.16 245.13 C 151.46 245.51 152.04 246.26 152.33 246.63 C 160.74 246.44 169.16 246.77 177.56 246.45 C 177.51 247.22 177.40 248.74 177.34 249.51 C 167.37 249.47 157.39 249.39 147.42 249.55 C 150.41 230.31 152.77 210.97 155.77 191.72 Z" />
<path fill="#263d6a" d=" M 263.92 191.71 C 265.36 191.74 266.80 191.76 268.24 191.77 C 267.15 195.12 267.43 198.75 266.12 202.04 C 265.21 205.10 262.80 207.42 260.15 209.04 C 260.29 206.10 262.34 203.94 263.73 201.52 C 263.64 200.35 263.47 199.18 262.64 198.29 C 262.81 196.06 262.61 193.65 263.92 191.71 Z" />
<path fill="#263d6a" d=" M 361.94 194.03 C 361.84 192.10 363.88 191.47 365.47 191.52 C 365.00 200.99 362.54 210.26 362.28 219.72 C 366.08 215.35 371.16 211.69 377.00 210.86 C 380.33 211.01 384.08 212.25 385.73 215.40 C 386.97 218.61 387.73 222.20 386.58 225.57 C 385.49 233.74 384.29 241.89 383.11 250.05 C 382.26 250.05 380.56 250.05 379.70 250.05 C 381.11 240.36 382.48 230.65 383.71 220.97 C 383.44 217.64 380.57 214.05 376.96 214.36 C 370.38 214.53 365.63 219.88 361.60 224.47 C 359.66 230.79 359.75 237.52 358.32 243.96 C 358.17 246.61 358.62 250.99 354.54 250.19 C 356.18 231.38 359.94 212.81 361.94 194.03 Z" />
<path fill="#84371c" d=" M 521.84 191.76 C 522.71 191.77 524.45 191.78 525.32 191.79 C 522.74 207.00 520.97 222.33 518.59 237.57 C 517.94 240.06 518.64 242.85 517.14 245.10 C 517.43 245.49 517.99 246.27 518.27 246.66 C 526.69 246.49 535.12 246.79 543.54 246.50 C 543.45 247.39 543.26 249.16 543.16 250.05 C 533.32 250.05 523.49 250.04 513.65 250.05 C 514.27 242.00 515.91 234.06 516.82 226.04 C 518.56 214.63 519.68 203.10 521.84 191.76 Z" />
<path fill="#84371c" d=" M 620.05 191.73 C 621.44 191.76 622.84 191.78 624.24 191.80 C 623.09 195.10 623.43 198.71 622.11 201.96 C 621.23 205.00 618.85 207.30 616.28 208.99 C 616.47 208.08 616.84 206.26 617.02 205.35 C 618.17 204.26 619.01 202.92 619.75 201.53 C 619.66 200.35 619.52 199.16 618.67 198.26 C 618.87 196.05 618.51 193.56 620.05 191.73 Z" />
<path fill="#84371c" d=" M 687.90 191.78 C 688.75 191.78 690.43 191.77 691.28 191.77 C 690.33 200.11 688.38 208.35 688.14 216.75 C 691.53 213.33 696.06 210.73 701.00 210.86 C 707.04 211.24 712.36 216.07 713.28 222.07 C 714.93 226.27 713.24 230.59 712.86 234.85 C 710.86 240.77 706.36 245.86 700.58 248.31 C 694.07 251.35 686.65 250.81 679.70 250.14 C 682.56 230.70 685.16 211.23 687.90 191.78 Z" />
<path fill="#84371c" d=" M 841.85 191.77 C 843.35 191.76 844.87 191.76 846.39 191.75 C 844.74 200.34 843.07 208.94 841.57 217.54 C 840.59 223.31 839.76 229.24 837.99 234.79 L 836.82 235.29 C 838.19 228.23 837.84 220.96 839.53 213.94 C 839.86 206.49 841.53 199.21 841.85 191.77 Z" />
<path fill="#84371c" d=" M 769.59 192.25 C 770.71 193.63 772.03 194.97 772.33 196.82 C 770.47 201.82 770.81 207.39 769.59 212.59 C 768.82 218.32 768.39 224.12 767.23 229.80 C 774.56 224.28 781.75 218.60 788.90 212.85 C 790.72 211.02 793.50 211.96 795.79 211.64 C 788.36 217.70 780.82 223.63 773.20 229.45 C 780.47 236.87 789.27 242.62 796.61 249.98 C 795.06 250.01 793.53 250.04 792.00 250.06 C 784.44 243.86 776.91 237.59 769.54 231.16 C 769.02 231.13 767.99 231.08 767.48 231.05 C 767.22 231.67 766.70 232.90 766.44 233.51 C 766.06 239.07 765.48 244.66 764.16 250.08 C 763.32 250.08 761.65 250.08 760.82 250.08 C 764.44 231.02 766.12 211.37 769.59 192.25 Z" />
<path fill="#263d6a" d=" M 188.62 201.27 C 188.76 199.10 189.17 196.97 189.82 194.90 C 190.66 194.89 192.33 194.88 193.17 194.88 C 192.19 196.87 192.19 199.10 192.08 201.26 C 191.21 201.26 189.49 201.27 188.62 201.27 Z" />
<path fill="#263d6a" d=" M 467.82 202.82 C 468.67 202.82 470.35 202.84 471.19 202.84 C 470.46 205.73 469.58 208.61 469.31 211.59 C 472.65 211.83 476.01 211.77 479.37 211.70 C 479.31 212.37 479.20 213.69 479.15 214.36 C 475.82 214.36 472.50 214.39 469.18 214.30 C 467.23 221.96 465.95 229.82 464.58 237.61 C 464.10 239.56 464.32 241.57 464.34 243.55 C 465.84 245.34 467.20 248.10 469.94 247.93 C 473.05 248.47 475.69 246.57 478.03 244.80 C 478.03 245.58 478.04 247.15 478.05 247.94 C 474.47 250.43 469.50 251.77 465.47 249.59 C 460.98 247.25 460.29 241.49 460.90 236.97 C 462.49 229.39 463.82 221.73 465.60 214.20 C 463.36 214.23 461.12 214.40 458.90 214.60 C 457.91 213.73 457.84 212.29 458.96 211.49 C 461.11 211.81 463.31 211.78 465.49 211.69 C 466.46 208.79 467.04 205.78 467.82 202.82 Z" />
<path fill="#84371c" d=" M 597.86 202.85 C 598.70 202.84 600.37 202.83 601.21 202.83 C 600.05 205.62 599.69 208.70 599.32 211.67 C 602.65 211.82 605.99 211.80 609.33 211.73 C 609.28 212.38 609.19 213.68 609.14 214.32 C 605.81 214.33 602.48 214.36 599.15 214.28 C 597.24 221.94 595.93 229.79 594.56 237.57 C 594.06 239.52 594.30 241.55 594.29 243.54 C 595.77 245.36 597.12 248.17 599.90 247.93 C 603.00 248.52 605.62 246.63 607.98 244.92 C 608.00 245.66 608.03 247.15 608.05 247.90 C 604.42 250.34 599.47 251.74 595.43 249.50 C 591.01 247.15 590.31 241.47 590.91 236.98 C 592.38 229.41 594.12 221.88 595.36 214.26 C 592.84 214.34 590.33 214.34 587.83 214.33 C 587.87 213.69 587.96 212.42 588.01 211.79 C 590.51 211.79 593.02 211.77 595.53 211.71 C 596.47 208.80 597.05 205.80 597.86 202.85 Z" />
<path fill="#263d6a" d=" M 219.68 221.86 C 222.86 213.42 233.88 207.70 242.06 212.79 C 248.08 216.24 248.92 223.80 248.32 230.06 C 239.29 230.16 230.24 229.82 221.21 230.24 C 220.10 237.79 224.79 246.01 232.55 247.58 C 237.56 248.15 242.10 245.47 246.26 243.05 C 246.23 244.01 246.17 245.92 246.15 246.88 C 240.56 250.69 233.09 252.08 226.80 249.19 C 221.90 247.10 218.82 242.12 217.89 237.02 C 217.39 231.91 217.40 226.58 219.68 221.86 Z" />
<path fill="#263d6a" d=" M 279.81 211.55 C 285.02 209.72 290.44 211.98 295.15 214.19 C 295.18 215.59 295.21 217.00 295.24 218.42 C 290.92 216.05 286.14 213.68 281.06 214.47 C 277.73 214.78 273.74 217.85 275.30 221.55 C 279.49 227.91 288.21 229.33 292.17 235.94 C 294.25 239.77 293.71 245.45 289.78 247.92 C 283.39 252.46 274.24 251.14 268.53 246.09 C 268.71 244.61 268.89 243.13 269.08 241.65 C 273.21 245.77 279.73 249.32 285.52 246.54 C 287.73 245.35 290.54 242.92 289.57 240.11 C 288.20 235.89 283.85 233.93 280.53 231.46 C 276.56 228.74 271.29 225.50 271.70 219.98 C 271.41 215.38 275.72 212.31 279.81 211.55 Z" />
<path fill="#263d6a" d=" M 326.90 215.89 C 329.03 212.43 333.33 211.48 337.06 210.87 C 341.31 210.71 345.36 212.41 349.14 214.19 C 349.17 215.59 349.20 217.00 349.24 218.41 C 344.98 215.96 340.13 213.75 335.09 214.46 C 331.64 214.78 327.76 217.91 329.27 221.71 C 333.33 227.54 341.02 229.15 345.30 234.75 C 348.33 238.59 348.15 245.17 343.75 247.94 C 337.37 252.47 328.25 251.07 322.53 246.09 C 322.71 244.65 322.88 243.21 323.06 241.78 C 327.14 245.68 333.29 249.17 338.98 246.74 C 341.89 245.66 345.21 242.18 343.10 238.99 C 340.08 233.65 333.65 231.77 329.39 227.63 C 325.88 225.01 324.33 219.64 326.90 215.89 Z" />
<path fill="#263d6a" d=" M 401.79 214.82 C 405.93 211.52 411.82 209.63 416.94 211.70 C 420.23 212.61 422.31 215.49 423.94 218.29 C 427.17 228.35 425.34 241.41 416.25 247.92 C 410.48 252.24 400.70 251.74 396.94 245.02 C 394.20 241.23 394.57 236.40 394.63 231.98 C 394.54 225.64 397.05 219.11 401.79 214.82 Z" />
<path fill="#263d6a" d=" M 440.30 222.17 C 444.42 217.16 448.73 209.72 456.35 210.99 C 457.42 212.28 457.82 213.67 457.54 215.15 C 454.55 213.58 450.95 214.37 448.56 216.57 C 444.99 219.67 442.02 223.44 439.39 227.35 C 438.25 234.91 437.25 242.49 436.12 250.05 C 435.26 250.05 433.53 250.05 432.67 250.04 C 434.56 237.31 436.55 224.57 437.94 211.78 C 438.80 211.75 440.52 211.71 441.38 211.68 C 441.22 215.20 440.86 218.70 440.30 222.17 Z" />
<path fill="#84371c" d=" M 554.81 216.91 C 559.15 211.71 567.25 208.90 573.43 212.49 C 576.78 213.92 578.40 217.32 579.95 220.38 C 580.35 223.59 580.38 226.82 580.29 230.05 C 571.27 230.12 562.25 229.89 553.23 230.18 C 552.29 236.63 555.39 243.74 561.44 246.58 C 562.50 246.85 563.54 247.19 564.57 247.59 C 569.55 248.19 574.13 245.54 578.23 243.06 C 578.20 244.02 578.14 245.93 578.10 246.89 C 574.11 249.26 569.67 251.20 564.90 250.60 C 557.93 250.57 551.82 245.23 550.26 238.54 C 548.75 231.16 549.74 222.79 554.81 216.91 Z" />
<path fill="#84371c" d=" M 628.93 215.93 C 630.69 212.66 634.69 211.85 638.00 211.04 C 642.60 210.34 647.06 212.34 651.14 214.22 C 651.16 215.60 651.18 216.98 651.21 218.37 C 646.95 215.85 642.05 213.72 636.99 214.43 C 633.76 214.79 630.11 217.48 631.07 221.13 C 634.76 227.82 643.58 229.02 647.67 235.37 C 649.64 237.73 649.49 241.05 648.92 243.88 C 647.22 248.12 642.44 250.31 638.11 250.55 C 633.19 251.07 628.31 249.17 624.57 246.05 C 624.73 244.66 624.89 243.27 625.07 241.88 C 629.19 245.69 635.27 249.22 640.93 246.77 C 643.97 245.77 647.24 242.14 645.12 238.91 C 641.95 233.38 635.17 231.57 630.89 227.09 C 627.72 224.47 626.51 219.41 628.93 215.93 Z" />
<path fill="#84371c" d=" M 738.92 212.13 C 744.41 211.43 749.99 209.93 755.45 211.76 C 754.20 224.59 752.09 237.33 750.16 250.08 C 749.31 250.07 747.61 250.07 746.77 250.07 C 747.65 248.72 747.81 247.29 747.25 245.77 C 742.34 249.37 735.99 252.00 729.90 250.02 C 724.04 248.12 721.05 241.73 720.84 235.94 C 720.44 225.09 728.60 214.96 738.92 212.13 Z" />
<path fill="#84371c" d=" M 801.95 217.99 C 804.68 214.01 809.22 211.58 813.93 210.88 C 818.44 210.45 823.18 212.56 825.80 216.28 C 828.21 220.44 829.25 225.30 828.22 230.05 C 819.24 230.01 810.27 230.15 801.30 230.17 C 800.81 236.32 802.76 243.34 808.77 246.16 C 814.56 249.61 821.20 246.32 826.22 243.02 C 826.19 243.99 826.13 245.93 826.10 246.89 C 821.06 250.17 814.77 251.73 808.90 249.92 C 802.96 248.38 798.91 242.80 797.75 236.99 C 797.21 230.44 797.81 223.38 801.95 217.99 Z" />
<path fill="#263d6a" d=" M 186.99 211.79 C 187.85 211.76 189.57 211.70 190.43 211.67 C 188.97 224.51 186.98 237.32 185.13 250.11 C 183.98 249.80 182.83 249.52 181.67 249.28 C 183.34 246.08 182.37 242.32 183.50 238.96 C 184.45 229.87 186.43 220.91 186.99 211.79 Z" />
<path fill="#263d6a" d=" M 485.90 211.78 C 487.41 211.74 488.93 211.71 490.46 211.67 C 490.28 214.15 490.13 216.63 489.99 219.12 C 488.25 219.17 486.52 219.21 484.79 219.26 C 485.89 216.91 485.74 214.29 485.90 211.78 Z" />
<path fill="#fefefe" d=" M 401.22 221.17 C 403.89 216.15 410.35 212.38 415.86 215.16 C 419.07 216.32 420.19 219.74 421.60 222.51 C 421.89 226.87 422.18 231.36 420.59 235.53 C 418.78 240.00 416.15 244.58 411.53 246.60 C 410.47 246.87 409.43 247.19 408.40 247.54 C 407.42 247.58 406.45 247.61 405.48 247.63 C 401.79 246.31 399.67 242.97 398.35 239.48 C 397.87 233.28 397.60 226.57 401.22 221.17 Z" />
<path fill="#fefefe" d=" M 728.88 222.92 C 733.93 215.80 743.38 211.92 751.91 214.24 C 751.37 223.12 749.02 231.80 748.67 240.69 C 744.32 244.90 738.46 249.07 732.08 247.53 C 726.51 245.80 724.34 239.47 724.44 234.19 C 725.55 230.31 726.23 226.11 728.88 222.92 Z" />
<path fill="#fefefe" d=" M 229.15 216.02 C 232.79 213.67 238.08 213.60 241.45 216.48 C 244.19 219.14 245.47 222.97 244.84 226.76 C 237.25 226.76 229.65 226.96 222.07 226.64 C 222.76 222.24 225.59 218.55 229.15 216.02 Z" />
<path fill="#fefefe" d=" M 554.05 226.68 C 555.18 219.86 561.59 213.12 568.95 214.39 C 574.66 215.09 577.77 221.51 576.88 226.76 C 569.27 226.81 561.65 226.95 554.05 226.68 Z" />
<path fill="#fefefe" d=" M 686.36 224.52 C 688.34 217.83 695.97 212.63 702.89 214.85 C 707.93 216.71 709.80 222.22 710.72 227.00 C 709.51 231.16 709.51 235.95 706.26 239.28 C 701.32 246.15 692.30 248.23 684.28 247.65 C 683.99 247.27 683.41 246.53 683.12 246.15 C 683.88 244.87 684.22 243.44 684.18 241.96 C 684.72 236.12 686.14 230.39 686.36 224.52 Z" />
<path fill="#fefefe" d=" M 802.13 226.63 C 803.20 219.83 809.61 213.17 816.92 214.42 C 820.92 214.67 823.18 218.25 824.77 221.49 C 824.84 223.24 824.88 225.00 824.89 226.75 C 817.29 227.03 809.71 226.56 802.13 226.63 Z" />
<path fill="#fefefe" d=" M 892.09 235.86 C 894.82 234.96 898.24 234.74 900.47 236.90 C 901.59 240.94 895.83 242.22 892.91 241.35 C 890.39 240.85 890.33 237.27 892.09 235.86 Z" />
<path fill="#263d6a" d=" M 481.92 242.75 C 483.44 242.71 484.95 242.66 486.48 242.62 C 486.41 248.94 485.21 256.80 478.71 259.70 C 478.75 256.17 482.31 254.12 482.80 250.66 C 482.34 250.44 481.40 250.02 480.93 249.80 C 481.98 247.60 481.72 245.11 481.92 242.75 Z" />
<path fill="#84371c" d=" M 833.91 242.77 C 835.41 242.73 836.92 242.69 838.44 242.65 C 838.25 245.11 838.11 247.58 837.99 250.04 C 836.26 250.04 834.54 250.04 832.83 250.06 C 834.02 247.81 833.72 245.21 833.91 242.77 Z" />
</svg>
